<mxfile host="app.diagrams.net" agent="Mozilla/5.0 (X11; Linux x86_64; rv:132.0) Gecko/20100101 Firefox/132.0" version="26.2.9">
  <diagram name="Page-1" id="iRX-Zw3rXRFVKdlmw2_z">
    <mxGraphModel dx="985" dy="532" grid="1" gridSize="10" guides="1" tooltips="1" connect="1" arrows="1" fold="1" page="1" pageScale="1" pageWidth="827" pageHeight="1169" math="0" shadow="0">
      <root>
        <mxCell id="0" />
        <mxCell id="1" parent="0" />
        <mxCell id="-x2ui8f0OP5rvinT5ZCn-2" value="SendToMonTask" style="strokeWidth=2;html=1;shape=mxgraph.flowchart.start_2;whiteSpace=wrap;" vertex="1" parent="1">
          <mxGeometry x="574" y="100" width="146" height="140" as="geometry" />
        </mxCell>
        <mxCell id="-x2ui8f0OP5rvinT5ZCn-3" value="ReceiveFromMonTask" style="strokeWidth=2;html=1;shape=mxgraph.flowchart.start_2;whiteSpace=wrap;" vertex="1" parent="1">
          <mxGeometry x="348" y="100" width="146" height="140" as="geometry" />
        </mxCell>
        <mxCell id="-x2ui8f0OP5rvinT5ZCn-5" value="OpenComRobot" style="strokeWidth=2;html=1;shape=mxgraph.flowchart.start_2;whiteSpace=wrap;" vertex="1" parent="1">
          <mxGeometry x="800" y="100" width="146" height="140" as="geometry" />
        </mxCell>
        <mxCell id="-x2ui8f0OP5rvinT5ZCn-1" value="ServerTask" style="strokeWidth=2;html=1;shape=mxgraph.flowchart.start_2;whiteSpace=wrap;" vertex="1" parent="1">
          <mxGeometry x="120" y="100" width="150" height="140" as="geometry" />
        </mxCell>
        <mxCell id="-x2ui8f0OP5rvinT5ZCn-8" value="StartRobotTask" style="strokeWidth=2;html=1;shape=mxgraph.flowchart.start_2;whiteSpace=wrap;" vertex="1" parent="1">
          <mxGeometry x="1026" y="100" width="146" height="140" as="geometry" />
        </mxCell>
        <mxCell id="-x2ui8f0OP5rvinT5ZCn-10" value="MoveTask" style="strokeWidth=2;html=1;shape=mxgraph.flowchart.start_2;whiteSpace=wrap;" vertex="1" parent="1">
          <mxGeometry x="1026" y="320" width="146" height="140" as="geometry" />
        </mxCell>
        <mxCell id="-x2ui8f0OP5rvinT5ZCn-12" value="SendBatteryLevel" style="strokeWidth=2;html=1;shape=mxgraph.flowchart.start_2;whiteSpace=wrap;" vertex="1" parent="1">
          <mxGeometry x="800" y="320" width="146" height="140" as="geometry" />
        </mxCell>
        <mxCell id="-x2ui8f0OP5rvinT5ZCn-14" value="OpenCam" style="strokeWidth=2;html=1;shape=mxgraph.flowchart.start_2;whiteSpace=wrap;" vertex="1" parent="1">
          <mxGeometry x="574" y="320" width="146" height="140" as="geometry" />
        </mxCell>
        <mxCell id="-x2ui8f0OP5rvinT5ZCn-16" value="RobotPosCalcul" style="strokeWidth=2;html=1;shape=mxgraph.flowchart.start_2;whiteSpace=wrap;" vertex="1" parent="1">
          <mxGeometry x="348" y="320" width="146" height="140" as="geometry" />
        </mxCell>
        <mxCell id="-x2ui8f0OP5rvinT5ZCn-18" value="Send_NACK_ACK" style="strokeWidth=2;html=1;shape=mxgraph.flowchart.start_2;whiteSpace=wrap;" vertex="1" parent="1">
          <mxGeometry x="122" y="320" width="146" height="140" as="geometry" />
        </mxCell>
      </root>
    </mxGraphModel>
  </diagram>
</mxfile>
